<svg width="23" height="24" viewBox="0 0 23 24" fill="none" xmlns="http://www.w3.org/2000/svg">
<path d="M11.4765 0C5.14148 0 0 5.376 0 12C0 18.624 5.14148 24 11.4765 24C17.8115 24 22.953 18.624 22.953 12C22.953 5.376 17.8115 0 11.4765 0ZM5.81859 19.536C6.31208 18.456 9.31893 17.4 11.4765 17.4C13.6341 17.4 16.6524 18.456 17.1344 19.536C15.5736 20.832 13.6111 21.6 11.4765 21.6C9.34188 21.6 7.3794 20.832 5.81859 19.536ZM18.7756 17.796C17.1344 15.708 13.1521 15 11.4765 15C9.80094 15 5.81859 15.708 4.17745 17.796C3.00685 16.188 2.2953 14.184 2.2953 12C2.2953 6.708 6.41537 2.4 11.4765 2.4C16.5377 2.4 20.6577 6.708 20.6577 12C20.6577 14.184 19.9462 16.188 18.7756 17.796ZM11.4765 4.8C9.25007 4.8 7.45973 6.672 7.45973 9C7.45973 11.328 9.25007 13.2 11.4765 13.2C13.703 13.2 15.4933 11.328 15.4933 9C15.4933 6.672 13.703 4.8 11.4765 4.8ZM11.4765 10.8C10.524 10.8 9.75503 9.996 9.75503 9C9.75503 8.004 10.524 7.2 11.4765 7.2C12.4291 7.2 13.198 8.004 13.198 9C13.198 9.996 12.4291 10.8 11.4765 10.8Z" fill="currentColor"/>
</svg>